<svg xmlns="http://www.w3.org/2000/svg" xmlns:xlink="http://www.w3.org/1999/xlink" width="100" zoomAndPan="magnify" viewBox="0 0 75 74.999997" height="100" preserveAspectRatio="xMidYMid meet" version="1.0"><defs><clipPath id="56b199ab68"><path d="M 0.488281 0.488281 L 74.738281 0.488281 L 74.738281 74.738281 L 0.488281 74.738281 Z M 0.488281 0.488281 " clip-rule="nonzero"/></clipPath><clipPath id="1c0464570f"><path d="M 74.738281 37.613281 C 74.738281 38.828125 74.679688 40.042969 74.558594 41.25 C 74.441406 42.460938 74.261719 43.664062 74.023438 44.855469 C 73.785156 46.046875 73.492188 47.226562 73.140625 48.390625 C 72.785156 49.554688 72.375 50.695312 71.910156 51.820312 C 71.445312 52.941406 70.925781 54.039062 70.355469 55.113281 C 69.78125 56.183594 69.15625 57.226562 68.480469 58.238281 C 67.804688 59.25 67.082031 60.222656 66.308594 61.164062 C 65.539062 62.105469 64.722656 63.003906 63.863281 63.863281 C 63.003906 64.722656 62.105469 65.539062 61.164062 66.308594 C 60.222656 67.082031 59.25 67.804688 58.238281 68.480469 C 57.226562 69.15625 56.183594 69.78125 55.113281 70.355469 C 54.039062 70.925781 52.941406 71.445312 51.820312 71.910156 C 50.695312 72.375 49.554688 72.785156 48.390625 73.140625 C 47.226562 73.492188 46.046875 73.785156 44.855469 74.023438 C 43.664062 74.261719 42.460938 74.441406 41.25 74.558594 C 40.042969 74.679688 38.828125 74.738281 37.613281 74.738281 C 36.398438 74.738281 35.183594 74.679688 33.972656 74.558594 C 32.761719 74.441406 31.5625 74.261719 30.371094 74.023438 C 29.175781 73.785156 28 73.492188 26.835938 73.140625 C 25.671875 72.785156 24.527344 72.375 23.40625 71.910156 C 22.28125 71.445312 21.183594 70.925781 20.113281 70.355469 C 19.039062 69.78125 17.996094 69.15625 16.988281 68.480469 C 15.976562 67.804688 15 67.082031 14.0625 66.308594 C 13.121094 65.539062 12.222656 64.722656 11.359375 63.863281 C 10.5 63.003906 9.6875 62.105469 8.914062 61.164062 C 8.144531 60.222656 7.417969 59.25 6.746094 58.238281 C 6.070312 57.226562 5.445312 56.183594 4.871094 55.113281 C 4.296875 54.039062 3.777344 52.941406 3.3125 51.820312 C 2.847656 50.695312 2.4375 49.554688 2.085938 48.390625 C 1.734375 47.226562 1.4375 46.046875 1.199219 44.855469 C 0.964844 43.664062 0.785156 42.460938 0.667969 41.25 C 0.546875 40.042969 0.488281 38.828125 0.488281 37.613281 C 0.488281 36.398438 0.546875 35.183594 0.667969 33.972656 C 0.785156 32.761719 0.964844 31.5625 1.199219 30.371094 C 1.4375 29.175781 1.734375 28 2.085938 26.835938 C 2.4375 25.671875 2.847656 24.527344 3.3125 23.40625 C 3.777344 22.28125 4.296875 21.183594 4.871094 20.113281 C 5.445312 19.039062 6.070312 17.996094 6.746094 16.988281 C 7.417969 15.976562 8.144531 15 8.914062 14.0625 C 9.6875 13.121094 10.5 12.222656 11.359375 11.359375 C 12.222656 10.5 13.121094 9.6875 14.0625 8.914062 C 15 8.144531 15.976562 7.417969 16.988281 6.746094 C 17.996094 6.070312 19.039062 5.445312 20.113281 4.871094 C 21.183594 4.296875 22.28125 3.777344 23.40625 3.3125 C 24.527344 2.847656 25.671875 2.4375 26.835938 2.085938 C 28 1.734375 29.175781 1.4375 30.371094 1.199219 C 31.5625 0.964844 32.761719 0.785156 33.972656 0.667969 C 35.183594 0.546875 36.398438 0.488281 37.613281 0.488281 C 38.828125 0.488281 40.042969 0.546875 41.25 0.667969 C 42.460938 0.785156 43.664062 0.964844 44.855469 1.199219 C 46.046875 1.4375 47.226562 1.734375 48.390625 2.085938 C 49.554688 2.4375 50.695312 2.847656 51.820312 3.3125 C 52.941406 3.777344 54.039062 4.296875 55.113281 4.871094 C 56.183594 5.445312 57.226562 6.070312 58.238281 6.746094 C 59.25 7.417969 60.222656 8.144531 61.164062 8.914062 C 62.105469 9.6875 63.003906 10.5 63.863281 11.359375 C 64.722656 12.222656 65.539062 13.121094 66.308594 14.0625 C 67.082031 15 67.804688 15.976562 68.480469 16.988281 C 69.15625 17.996094 69.78125 19.039062 70.355469 20.113281 C 70.925781 21.183594 71.445312 22.28125 71.910156 23.40625 C 72.375 24.527344 72.785156 25.671875 73.140625 26.835938 C 73.492188 28 73.785156 29.175781 74.023438 30.371094 C 74.261719 31.5625 74.441406 32.761719 74.558594 33.972656 C 74.679688 35.183594 74.738281 36.398438 74.738281 37.613281 Z M 74.738281 37.613281 " clip-rule="nonzero"/></clipPath><linearGradient x1="-0.0000000113835" gradientTransform="matrix(74.249997, 0, 0, 74.249997, 0.487503, 0.487502)" y1="-0.0000000112719" x2="1.004902" gradientUnits="userSpaceOnUse" y2="0.995049" id="06185ced73"><stop stop-opacity="1" stop-color="rgb(0%, 28.999329%, 67.799377%)" offset="0"/><stop stop-opacity="1" stop-color="rgb(0.0106812%, 29.148865%, 67.835999%)" offset="0.0078125"/><stop stop-opacity="1" stop-color="rgb(0.0350952%, 29.447937%, 67.909241%)" offset="0.015625"/><stop stop-opacity="1" stop-color="rgb(0.0595093%, 29.748535%, 67.982483%)" offset="0.0234375"/><stop stop-opacity="1" stop-color="rgb(0.0823975%, 30.047607%, 68.055725%)" offset="0.03125"/><stop stop-opacity="1" stop-color="rgb(0.106812%, 30.34668%, 68.128967%)" offset="0.0390625"/><stop stop-opacity="1" stop-color="rgb(0.131226%, 30.647278%, 68.202209%)" offset="0.046875"/><stop stop-opacity="1" stop-color="rgb(0.154114%, 30.94635%, 68.275452%)" offset="0.0546875"/><stop stop-opacity="1" stop-color="rgb(0.178528%, 31.245422%, 68.348694%)" offset="0.0625"/><stop stop-opacity="1" stop-color="rgb(0.202942%, 31.544495%, 68.421936%)" offset="0.0703125"/><stop stop-opacity="1" stop-color="rgb(0.22583%, 31.845093%, 68.496704%)" offset="0.078125"/><stop stop-opacity="1" stop-color="rgb(0.250244%, 32.144165%, 68.569946%)" offset="0.0859375"/><stop stop-opacity="1" stop-color="rgb(0.274658%, 32.443237%, 68.643188%)" offset="0.09375"/><stop stop-opacity="1" stop-color="rgb(0.297546%, 32.743835%, 68.716431%)" offset="0.101562"/><stop stop-opacity="1" stop-color="rgb(0.32196%, 33.042908%, 68.789673%)" offset="0.109375"/><stop stop-opacity="1" stop-color="rgb(0.346375%, 33.34198%, 68.862915%)" offset="0.117188"/><stop stop-opacity="1" stop-color="rgb(0.369263%, 33.642578%, 68.936157%)" offset="0.125"/><stop stop-opacity="1" stop-color="rgb(0.393677%, 33.94165%, 69.009399%)" offset="0.132812"/><stop stop-opacity="1" stop-color="rgb(0.418091%, 34.240723%, 69.082642%)" offset="0.140625"/><stop stop-opacity="1" stop-color="rgb(0.442505%, 34.541321%, 69.155884%)" offset="0.148438"/><stop stop-opacity="1" stop-color="rgb(0.465393%, 34.840393%, 69.229126%)" offset="0.15625"/><stop stop-opacity="1" stop-color="rgb(0.489807%, 35.139465%, 69.302368%)" offset="0.164062"/><stop stop-opacity="1" stop-color="rgb(0.514221%, 35.438538%, 69.37561%)" offset="0.171875"/><stop stop-opacity="1" stop-color="rgb(0.537109%, 35.739136%, 69.448853%)" offset="0.179688"/><stop stop-opacity="1" stop-color="rgb(0.561523%, 36.038208%, 69.522095%)" offset="0.1875"/><stop stop-opacity="1" stop-color="rgb(0.585938%, 36.33728%, 69.595337%)" offset="0.195312"/><stop stop-opacity="1" stop-color="rgb(0.608826%, 36.637878%, 69.670105%)" offset="0.203125"/><stop stop-opacity="1" stop-color="rgb(0.63324%, 36.936951%, 69.743347%)" offset="0.210937"/><stop stop-opacity="1" stop-color="rgb(0.657654%, 37.236023%, 69.816589%)" offset="0.21875"/><stop stop-opacity="1" stop-color="rgb(0.680542%, 37.536621%, 69.889832%)" offset="0.226562"/><stop stop-opacity="1" stop-color="rgb(0.704956%, 37.835693%, 69.963074%)" offset="0.234375"/><stop stop-opacity="1" stop-color="rgb(0.72937%, 38.134766%, 70.036316%)" offset="0.242187"/><stop stop-opacity="1" stop-color="rgb(0.752258%, 38.435364%, 70.109558%)" offset="0.25"/><stop stop-opacity="1" stop-color="rgb(0.776672%, 38.734436%, 70.1828%)" offset="0.257812"/><stop stop-opacity="1" stop-color="rgb(0.801086%, 39.033508%, 70.256042%)" offset="0.265625"/><stop stop-opacity="1" stop-color="rgb(0.823975%, 39.334106%, 70.329285%)" offset="0.273437"/><stop stop-opacity="1" stop-color="rgb(0.848389%, 39.633179%, 70.402527%)" offset="0.28125"/><stop stop-opacity="1" stop-color="rgb(0.872803%, 39.932251%, 70.475769%)" offset="0.289062"/><stop stop-opacity="1" stop-color="rgb(0.897217%, 40.231323%, 70.549011%)" offset="0.296875"/><stop stop-opacity="1" stop-color="rgb(0.920105%, 40.531921%, 70.622253%)" offset="0.304687"/><stop stop-opacity="1" stop-color="rgb(0.944519%, 40.830994%, 70.695496%)" offset="0.3125"/><stop stop-opacity="1" stop-color="rgb(0.968933%, 41.130066%, 70.770264%)" offset="0.320312"/><stop stop-opacity="1" stop-color="rgb(0.991821%, 41.430664%, 70.843506%)" offset="0.328125"/><stop stop-opacity="1" stop-color="rgb(1.016235%, 41.729736%, 70.916748%)" offset="0.335937"/><stop stop-opacity="1" stop-color="rgb(1.040649%, 42.028809%, 70.98999%)" offset="0.34375"/><stop stop-opacity="1" stop-color="rgb(1.063538%, 42.329407%, 71.063232%)" offset="0.351562"/><stop stop-opacity="1" stop-color="rgb(1.087952%, 42.628479%, 71.136475%)" offset="0.359375"/><stop stop-opacity="1" stop-color="rgb(1.112366%, 42.927551%, 71.209717%)" offset="0.367187"/><stop stop-opacity="1" stop-color="rgb(1.135254%, 43.228149%, 71.282959%)" offset="0.375"/><stop stop-opacity="1" stop-color="rgb(1.159668%, 43.527222%, 71.356201%)" offset="0.382812"/><stop stop-opacity="1" stop-color="rgb(1.184082%, 43.826294%, 71.429443%)" offset="0.390625"/><stop stop-opacity="1" stop-color="rgb(1.20697%, 44.126892%, 71.502686%)" offset="0.398437"/><stop stop-opacity="1" stop-color="rgb(1.231384%, 44.425964%, 71.575928%)" offset="0.40625"/><stop stop-opacity="1" stop-color="rgb(1.255798%, 44.725037%, 71.64917%)" offset="0.414062"/><stop stop-opacity="1" stop-color="rgb(1.278687%, 45.024109%, 71.722412%)" offset="0.421875"/><stop stop-opacity="1" stop-color="rgb(1.303101%, 45.324707%, 71.795654%)" offset="0.429688"/><stop stop-opacity="1" stop-color="rgb(1.327515%, 45.623779%, 71.870422%)" offset="0.4375"/><stop stop-opacity="1" stop-color="rgb(1.351929%, 45.922852%, 71.943665%)" offset="0.445312"/><stop stop-opacity="1" stop-color="rgb(1.374817%, 46.22345%, 72.016907%)" offset="0.453125"/><stop stop-opacity="1" stop-color="rgb(1.399231%, 46.522522%, 72.090149%)" offset="0.460938"/><stop stop-opacity="1" stop-color="rgb(1.423645%, 46.821594%, 72.163391%)" offset="0.46875"/><stop stop-opacity="1" stop-color="rgb(1.446533%, 47.122192%, 72.236633%)" offset="0.476562"/><stop stop-opacity="1" stop-color="rgb(1.470947%, 47.421265%, 72.309875%)" offset="0.484375"/><stop stop-opacity="1" stop-color="rgb(1.495361%, 47.720337%, 72.383118%)" offset="0.492187"/><stop stop-opacity="1" stop-color="rgb(1.51825%, 48.020935%, 72.45636%)" offset="0.497537"/><stop stop-opacity="1" stop-color="rgb(1.530457%, 48.170471%, 72.492981%)" offset="0.5"/><stop stop-opacity="1" stop-color="rgb(1.542664%, 48.320007%, 72.529602%)" offset="0.502463"/><stop stop-opacity="1" stop-color="rgb(1.554871%, 48.469543%, 72.566223%)" offset="0.507812"/><stop stop-opacity="1" stop-color="rgb(1.567078%, 48.61908%, 72.602844%)" offset="0.515625"/><stop stop-opacity="1" stop-color="rgb(1.589966%, 48.919678%, 72.676086%)" offset="0.523438"/><stop stop-opacity="1" stop-color="rgb(1.61438%, 49.21875%, 72.749329%)" offset="0.53125"/><stop stop-opacity="1" stop-color="rgb(1.638794%, 49.517822%, 72.822571%)" offset="0.539062"/><stop stop-opacity="1" stop-color="rgb(1.661682%, 49.816895%, 72.895813%)" offset="0.546875"/><stop stop-opacity="1" stop-color="rgb(1.686096%, 50.117493%, 72.970581%)" offset="0.554688"/><stop stop-opacity="1" stop-color="rgb(1.71051%, 50.416565%, 73.043823%)" offset="0.5625"/><stop stop-opacity="1" stop-color="rgb(1.733398%, 50.715637%, 73.117065%)" offset="0.570312"/><stop stop-opacity="1" stop-color="rgb(1.757812%, 51.016235%, 73.190308%)" offset="0.578125"/><stop stop-opacity="1" stop-color="rgb(1.782227%, 51.315308%, 73.26355%)" offset="0.585938"/><stop stop-opacity="1" stop-color="rgb(1.806641%, 51.61438%, 73.336792%)" offset="0.59375"/><stop stop-opacity="1" stop-color="rgb(1.829529%, 51.914978%, 73.410034%)" offset="0.601562"/><stop stop-opacity="1" stop-color="rgb(1.853943%, 52.21405%, 73.483276%)" offset="0.609375"/><stop stop-opacity="1" stop-color="rgb(1.878357%, 52.513123%, 73.556519%)" offset="0.617188"/><stop stop-opacity="1" stop-color="rgb(1.901245%, 52.813721%, 73.629761%)" offset="0.625"/><stop stop-opacity="1" stop-color="rgb(1.925659%, 53.112793%, 73.703003%)" offset="0.632812"/><stop stop-opacity="1" stop-color="rgb(1.950073%, 53.411865%, 73.776245%)" offset="0.640625"/><stop stop-opacity="1" stop-color="rgb(1.972961%, 53.712463%, 73.849487%)" offset="0.648438"/><stop stop-opacity="1" stop-color="rgb(1.997375%, 54.011536%, 73.922729%)" offset="0.65625"/><stop stop-opacity="1" stop-color="rgb(2.02179%, 54.310608%, 73.995972%)" offset="0.664062"/><stop stop-opacity="1" stop-color="rgb(2.044678%, 54.60968%, 74.07074%)" offset="0.671875"/><stop stop-opacity="1" stop-color="rgb(2.069092%, 54.910278%, 74.143982%)" offset="0.679688"/><stop stop-opacity="1" stop-color="rgb(2.093506%, 55.209351%, 74.217224%)" offset="0.6875"/><stop stop-opacity="1" stop-color="rgb(2.116394%, 55.508423%, 74.290466%)" offset="0.695312"/><stop stop-opacity="1" stop-color="rgb(2.140808%, 55.809021%, 74.363708%)" offset="0.703125"/><stop stop-opacity="1" stop-color="rgb(2.165222%, 56.108093%, 74.436951%)" offset="0.710938"/><stop stop-opacity="1" stop-color="rgb(2.18811%, 56.407166%, 74.510193%)" offset="0.71875"/><stop stop-opacity="1" stop-color="rgb(2.212524%, 56.707764%, 74.583435%)" offset="0.726562"/><stop stop-opacity="1" stop-color="rgb(2.236938%, 57.006836%, 74.656677%)" offset="0.734375"/><stop stop-opacity="1" stop-color="rgb(2.261353%, 57.305908%, 74.729919%)" offset="0.742188"/><stop stop-opacity="1" stop-color="rgb(2.284241%, 57.606506%, 74.803162%)" offset="0.75"/><stop stop-opacity="1" stop-color="rgb(2.308655%, 57.905579%, 74.876404%)" offset="0.757812"/><stop stop-opacity="1" stop-color="rgb(2.333069%, 58.204651%, 74.949646%)" offset="0.765625"/><stop stop-opacity="1" stop-color="rgb(2.355957%, 58.505249%, 75.022888%)" offset="0.773438"/><stop stop-opacity="1" stop-color="rgb(2.380371%, 58.804321%, 75.09613%)" offset="0.78125"/><stop stop-opacity="1" stop-color="rgb(2.404785%, 59.103394%, 75.170898%)" offset="0.789062"/><stop stop-opacity="1" stop-color="rgb(2.427673%, 59.402466%, 75.244141%)" offset="0.796875"/><stop stop-opacity="1" stop-color="rgb(2.452087%, 59.703064%, 75.317383%)" offset="0.804687"/><stop stop-opacity="1" stop-color="rgb(2.476501%, 60.002136%, 75.390625%)" offset="0.8125"/><stop stop-opacity="1" stop-color="rgb(2.49939%, 60.301208%, 75.463867%)" offset="0.820312"/><stop stop-opacity="1" stop-color="rgb(2.523804%, 60.601807%, 75.537109%)" offset="0.828125"/><stop stop-opacity="1" stop-color="rgb(2.548218%, 60.900879%, 75.610352%)" offset="0.835937"/><stop stop-opacity="1" stop-color="rgb(2.571106%, 61.199951%, 75.683594%)" offset="0.84375"/><stop stop-opacity="1" stop-color="rgb(2.59552%, 61.500549%, 75.756836%)" offset="0.851562"/><stop stop-opacity="1" stop-color="rgb(2.619934%, 61.799622%, 75.830078%)" offset="0.859375"/><stop stop-opacity="1" stop-color="rgb(2.644348%, 62.098694%, 75.90332%)" offset="0.867187"/><stop stop-opacity="1" stop-color="rgb(2.667236%, 62.399292%, 75.976562%)" offset="0.875"/><stop stop-opacity="1" stop-color="rgb(2.69165%, 62.698364%, 76.049805%)" offset="0.882812"/><stop stop-opacity="1" stop-color="rgb(2.716064%, 62.997437%, 76.123047%)" offset="0.890625"/><stop stop-opacity="1" stop-color="rgb(2.738953%, 63.298035%, 76.196289%)" offset="0.898437"/><stop stop-opacity="1" stop-color="rgb(2.763367%, 63.597107%, 76.271057%)" offset="0.90625"/><stop stop-opacity="1" stop-color="rgb(2.787781%, 63.896179%, 76.344299%)" offset="0.914062"/><stop stop-opacity="1" stop-color="rgb(2.810669%, 64.195251%, 76.417542%)" offset="0.921875"/><stop stop-opacity="1" stop-color="rgb(2.835083%, 64.49585%, 76.490784%)" offset="0.929687"/><stop stop-opacity="1" stop-color="rgb(2.859497%, 64.794922%, 76.564026%)" offset="0.9375"/><stop stop-opacity="1" stop-color="rgb(2.882385%, 65.093994%, 76.637268%)" offset="0.945312"/><stop stop-opacity="1" stop-color="rgb(2.906799%, 65.394592%, 76.71051%)" offset="0.953125"/><stop stop-opacity="1" stop-color="rgb(2.931213%, 65.693665%, 76.783752%)" offset="0.960937"/><stop stop-opacity="1" stop-color="rgb(2.954102%, 65.992737%, 76.856995%)" offset="0.96875"/><stop stop-opacity="1" stop-color="rgb(2.978516%, 66.293335%, 76.930237%)" offset="0.976562"/><stop stop-opacity="1" stop-color="rgb(3.00293%, 66.592407%, 77.003479%)" offset="0.984375"/><stop stop-opacity="1" stop-color="rgb(3.025818%, 66.891479%, 77.076721%)" offset="0.992187"/><stop stop-opacity="1" stop-color="rgb(3.050232%, 67.192078%, 77.149963%)" offset="1"/></linearGradient><clipPath id="9f70919b0b"><path d="M 12 6 L 63 6 L 63 70 L 12 70 Z M 12 6 " clip-rule="nonzero"/></clipPath><clipPath id="175b0aeea9"><path d="M 16.761719 -12.765625 L 88.089844 16.902344 L 58.421875 88.230469 L -12.902344 58.5625 Z M 16.761719 -12.765625 " clip-rule="nonzero"/></clipPath><clipPath id="4dfea50c5c"><path d="M 16.761719 -12.765625 L 88.089844 16.902344 L 58.421875 88.230469 L -12.902344 58.5625 Z M 16.761719 -12.765625 " clip-rule="nonzero"/></clipPath></defs><g clip-path="url(#56b199ab68)"><g clip-path="url(#1c0464570f)"><path fill="url(#06185ced73)" d="M 0.488281 0.488281 L 0.488281 74.738281 L 74.738281 74.738281 L 74.738281 0.488281 Z M 0.488281 0.488281 " fill-rule="nonzero"/></g></g><g clip-path="url(#9f70919b0b)"><g clip-path="url(#175b0aeea9)"><g clip-path="url(#4dfea50c5c)"><path fill="#f1f1f1" d="M 59.574219 15.511719 L 37.855469 6.480469 C 36.453125 5.898438 34.945312 5.941406 33.640625 6.476562 C 32.335938 7.015625 31.234375 8.050781 30.652344 9.449219 L 12.640625 52.75 C 12.058594 54.148438 12.101562 55.660156 12.640625 56.964844 C 13.179688 58.269531 14.214844 59.371094 15.613281 59.953125 L 37.332031 68.984375 C 38.734375 69.566406 40.242188 69.523438 41.546875 68.988281 C 42.851562 68.449219 43.953125 67.414062 44.535156 66.015625 L 62.542969 22.714844 C 63.125 21.316406 63.082031 19.804688 62.546875 18.5 C 62.007812 17.195312 60.972656 16.09375 59.574219 15.511719 Z M 26.445312 58.671875 L 30.601562 60.402344 C 31.296875 60.691406 31.628906 61.496094 31.339844 62.195312 C 31.050781 62.890625 30.246094 63.222656 29.546875 62.933594 L 25.394531 61.207031 C 24.695312 60.914062 24.363281 60.109375 24.652344 59.414062 C 24.945312 58.714844 25.75 58.382812 26.445312 58.671875 Z M 42.4375 11.699219 C 42.898438 11.890625 43.117188 12.421875 42.925781 12.882812 C 42.734375 13.34375 42.203125 13.5625 41.742188 13.371094 C 41.28125 13.179688 41.0625 12.648438 41.253906 12.1875 C 41.445312 11.726562 41.976562 11.507812 42.4375 11.699219 Z M 51.945312 17.613281 C 52.40625 17.804688 52.9375 17.589844 53.128906 17.125 C 53.320312 16.664062 53.101562 16.132812 52.640625 15.941406 L 44.976562 12.753906 C 44.515625 12.5625 43.984375 12.78125 43.792969 13.242188 C 43.601562 13.703125 43.820312 14.234375 44.28125 14.425781 Z M 32.152344 12.917969 L 59.027344 24.097656 L 42.960938 62.726562 L 16.082031 51.546875 L 32.152344 12.917969 " fill-opacity="1" fill-rule="evenodd"/></g></g></g></svg>