<svg xmlns="http://www.w3.org/2000/svg" xmlns:xlink="http://www.w3.org/1999/xlink" width="100" zoomAndPan="magnify" viewBox="0 0 75 74.999997" height="100" preserveAspectRatio="xMidYMid meet" version="1.0"><defs><clipPath id="4d67d6e410"><path d="M 20 18.421875 L 55 18.421875 L 55 56.671875 L 20 56.671875 Z M 20 18.421875 " clip-rule="nonzero"/></clipPath></defs><g clip-path="url(#4d67d6e410)"><path fill="#ffffff" d="M 52.042969 38.699219 C 49.8125 47.492188 44.878906 53.097656 37.382812 55.359375 C 29.898438 53.101562 24.96875 47.507812 22.734375 38.730469 C 21.332031 33.234375 21.480469 28.125 21.578125 26.464844 C 28.574219 26.242188 34.414062 22.078125 37.386719 19.902344 C 40.335938 22.054688 46.191406 26.238281 53.191406 26.464844 C 53.289062 28.117188 53.4375 33.203125 52.042969 38.699219 Z M 54.402344 25.773438 C 54.367188 25.449219 54.097656 25.203125 53.773438 25.203125 C 46.792969 25.203125 41.046875 21.007812 37.957031 18.753906 L 37.753906 18.601562 C 37.53125 18.441406 37.234375 18.441406 37.015625 18.601562 L 36.855469 18.71875 C 33.984375 20.824219 28.011719 25.203125 20.992188 25.203125 C 20.667969 25.203125 20.398438 25.449219 20.367188 25.773438 C 20.339844 26.03125 19.757812 32.128906 21.503906 39.011719 C 23.839844 48.210938 29.269531 54.304688 37.207031 56.632812 C 37.265625 56.648438 37.324219 56.65625 37.382812 56.65625 C 37.441406 56.65625 37.503906 56.648438 37.558594 56.632812 C 45.496094 54.304688 50.925781 48.210938 53.261719 39.011719 C 55.007812 32.128906 54.425781 26.03125 54.402344 25.773438 " fill-opacity="1" fill-rule="nonzero"/></g><path fill="#ffffff" d="M 44.332031 32.601562 L 36.261719 43.203125 C 36.050781 43.480469 35.738281 43.660156 35.394531 43.699219 C 35.347656 43.707031 35.296875 43.707031 35.25 43.707031 C 34.957031 43.707031 34.667969 43.605469 34.441406 43.417969 L 30.375 40.058594 C 29.828125 39.605469 29.75 38.796875 30.195312 38.246094 C 30.640625 37.695312 31.445312 37.613281 31.992188 38.0625 L 35.039062 40.582031 L 42.304688 31.035156 C 42.734375 30.46875 43.535156 30.363281 44.097656 30.796875 C 44.65625 31.230469 44.761719 32.039062 44.332031 32.601562 Z M 37.382812 22.378906 C 34.65625 24.363281 29.691406 27.75 23.722656 28.121094 C 23.5625 32.34375 23.851562 48.726562 37.382812 52.949219 C 50.914062 48.726562 51.203125 32.34375 51.046875 28.121094 C 45.074219 27.746094 40.097656 24.351562 37.382812 22.378906 " fill-opacity="1" fill-rule="nonzero"/></svg>