<svg xmlns="http://www.w3.org/2000/svg" xmlns:xlink="http://www.w3.org/1999/xlink" width="100" zoomAndPan="magnify" viewBox="0 0 75 74.999997" height="100" preserveAspectRatio="xMidYMid meet" version="1.0"><defs><clipPath id="5f9dd14fdd"><path d="M 1.734375 31 L 21.769531 31 L 21.769531 49.953125 L 1.734375 49.953125 Z M 1.734375 31 " clip-rule="nonzero"/></clipPath><clipPath id="a8dc354614"><path d="M 11 25.203125 L 17 25.203125 L 17 31 L 11 31 Z M 11 25.203125 " clip-rule="nonzero"/></clipPath><clipPath id="0b558f7dce"><path d="M 38 31 L 73.5 31 L 73.5 49.953125 L 38 49.953125 Z M 38 31 " clip-rule="nonzero"/></clipPath></defs><g clip-path="url(#5f9dd14fdd)"><path fill="#e6e6e6" d="M 18.464844 38.367188 C 18.4375 35.242188 21.007812 33.738281 21.125 33.664062 C 19.675781 31.535156 17.425781 31.246094 16.625 31.210938 C 14.710938 31.015625 12.886719 32.34375 11.914062 32.34375 C 10.941406 32.34375 9.445312 31.238281 7.855469 31.269531 C 5.765625 31.300781 3.839844 32.488281 2.765625 34.371094 C 0.597656 38.148438 2.210938 43.753906 4.324219 46.828125 C 5.359375 48.328125 6.589844 50.019531 8.207031 49.957031 C 9.769531 49.894531 10.355469 48.941406 12.238281 48.941406 C 14.121094 48.941406 14.652344 49.957031 16.300781 49.925781 C 17.976562 49.890625 19.039062 48.390625 20.0625 46.882812 C 21.25 45.140625 21.738281 43.453125 21.765625 43.367188 C 21.730469 43.351562 18.5 42.109375 18.464844 38.367188 " fill-opacity="1" fill-rule="nonzero"/></g><g clip-path="url(#a8dc354614)"><path fill="#e6e6e6" d="M 15.371094 29.179688 C 16.230469 28.132812 16.808594 26.679688 16.648438 25.230469 C 15.410156 25.28125 13.914062 26.058594 13.027344 27.105469 C 12.230469 28.03125 11.535156 29.511719 11.722656 30.929688 C 13.101562 31.039062 14.511719 30.222656 15.371094 29.179688 " fill-opacity="1" fill-rule="nonzero"/></g><path fill="#e6e6e6" d="M 29.3125 41.445312 L 27.890625 45.785156 L 26.058594 45.785156 L 30.71875 31.992188 L 32.855469 31.992188 L 37.539062 45.785156 L 35.644531 45.785156 L 34.175781 41.445312 Z M 33.8125 40.054688 L 32.472656 36.085938 C 32.167969 35.183594 31.960938 34.367188 31.757812 33.566406 L 31.71875 33.566406 L 31.027344 36.0625 L 29.6875 40.054688 Z M 33.8125 40.054688 " fill-opacity="1" fill-rule="nonzero"/><g clip-path="url(#0b558f7dce)"><path fill="#e6e6e6" d="M 38.929688 39.113281 C 38.929688 37.847656 38.890625 36.820312 38.847656 35.878906 L 40.457031 35.878906 L 40.539062 37.578125 L 40.578125 37.578125 C 41.308594 36.371094 42.46875 35.65625 44.078125 35.65625 C 46.460938 35.65625 48.25 37.679688 48.25 40.691406 C 48.25 44.25 46.09375 46.007812 43.773438 46.007812 C 42.472656 46.007812 41.332031 45.433594 40.742188 44.453125 L 40.699219 44.453125 L 40.699219 49.832031 L 38.929688 49.832031 Z M 40.699219 41.753906 C 40.699219 42.019531 40.738281 42.265625 40.78125 42.488281 C 41.105469 43.734375 42.183594 44.59375 43.46875 44.59375 C 45.363281 44.59375 46.460938 43.035156 46.460938 40.765625 C 46.460938 38.78125 45.425781 37.085938 43.53125 37.085938 C 42.308594 37.085938 41.171875 37.964844 40.824219 39.316406 C 40.761719 39.539062 40.699219 39.804688 40.699219 40.050781 Z M 50.101562 39.113281 C 50.101562 37.847656 50.0625 36.820312 50.019531 35.878906 L 51.628906 35.878906 L 51.710938 37.578125 L 51.75 37.578125 C 52.484375 36.371094 53.644531 35.65625 55.253906 35.65625 C 57.636719 35.65625 59.425781 37.679688 59.425781 40.691406 C 59.425781 44.25 57.269531 46.007812 54.949219 46.007812 C 53.644531 46.007812 52.507812 45.433594 51.914062 44.453125 L 51.875 44.453125 L 51.875 49.832031 L 50.101562 49.832031 Z M 51.875 41.753906 C 51.875 42.019531 51.914062 42.265625 51.957031 42.488281 C 52.28125 43.734375 53.363281 44.59375 54.644531 44.59375 C 56.539062 44.59375 57.640625 43.035156 57.640625 40.765625 C 57.640625 38.78125 56.601562 37.085938 54.707031 37.085938 C 53.488281 37.085938 52.347656 37.964844 52 39.316406 C 51.9375 39.539062 51.878906 39.804688 51.878906 40.050781 L 51.878906 41.75 Z M 61.273438 31.257812 L 63.066406 31.257812 L 63.066406 45.785156 L 61.273438 45.785156 Z M 66.667969 41.160156 C 66.707031 43.59375 68.257812 44.597656 70.046875 44.597656 C 71.332031 44.597656 72.101562 44.371094 72.773438 44.085938 L 73.082031 45.375 C 72.449219 45.660156 71.371094 45.988281 69.804688 45.988281 C 66.769531 45.988281 64.957031 43.984375 64.957031 41 C 64.957031 38.015625 66.710938 35.65625 69.578125 35.65625 C 72.796875 35.65625 73.648438 38.503906 73.648438 40.324219 C 73.648438 40.691406 73.609375 40.976562 73.585938 41.160156 Z M 71.921875 39.867188 C 71.941406 38.722656 71.453125 36.941406 69.4375 36.941406 C 67.625 36.941406 66.832031 38.621094 66.6875 39.867188 Z M 71.921875 39.867188 " fill-opacity="1" fill-rule="nonzero"/></g></svg>