<svg xmlns="http://www.w3.org/2000/svg" xmlns:xlink="http://www.w3.org/1999/xlink" width="100" zoomAndPan="magnify" viewBox="0 0 75 74.999997" height="100" preserveAspectRatio="xMidYMid meet" version="1.0"><defs><clipPath id="52601e6d61"><path d="M 13 3.738281 L 70.765625 3.738281 L 70.765625 70.488281 L 13 70.488281 Z M 13 3.738281 " clip-rule="nonzero"/></clipPath><clipPath id="eab4d0d23b"><path d="M 4.015625 27 L 33 27 L 33 70.488281 L 4.015625 70.488281 Z M 4.015625 27 " clip-rule="nonzero"/></clipPath></defs><g clip-path="url(#52601e6d61)"><path fill="#e6e6e6" d="M 65.625 4.929688 L 66.816406 4.929688 L 66.816406 9.695312 L 65.625 9.695312 Z M 62.792969 4.929688 L 63.988281 4.929688 L 63.988281 9.695312 L 62.792969 9.695312 Z M 27.257812 3.738281 C 21.664062 3.738281 17.128906 8.273438 17.128906 13.867188 L 17.128906 18.039062 L 13.550781 18.039062 L 13.550781 26.382812 L 23.085938 26.382812 L 23.085938 18.039062 L 19.511719 18.039062 L 19.511719 13.867188 C 19.511719 9.59375 22.984375 6.121094 27.257812 6.121094 C 31.535156 6.121094 35.007812 9.59375 35.007812 13.867188 L 35.007812 64.527344 C 35.007812 67.824219 37.671875 70.488281 40.964844 70.488281 C 44.261719 70.488281 46.925781 67.824219 46.925781 64.527344 L 46.925781 52.605469 C 46.925781 50.632812 48.527344 49.03125 50.503906 49.03125 C 52.476562 49.03125 54.078125 50.632812 54.078125 52.605469 L 54.078125 64.527344 C 54.078125 67.824219 56.742188 70.488281 60.039062 70.488281 C 63.335938 70.488281 65.996094 67.824219 65.996094 64.527344 L 65.996094 22.808594 L 70.765625 22.808594 L 70.765625 10.886719 L 68.382812 10.886719 L 68.382812 3.738281 L 61.230469 3.738281 L 61.230469 10.886719 L 58.847656 10.886719 L 58.847656 22.808594 L 63.613281 22.808594 L 63.613281 64.527344 C 63.613281 66.5 62.011719 68.101562 60.039062 68.101562 C 58.0625 68.101562 56.460938 66.5 56.460938 64.527344 L 56.460938 52.605469 C 56.460938 49.3125 53.800781 46.648438 50.503906 46.648438 C 47.207031 46.648438 44.542969 49.3125 44.542969 52.605469 L 44.542969 64.527344 C 44.542969 66.5 42.941406 68.101562 40.964844 68.101562 C 38.992188 68.101562 37.390625 66.5 37.390625 64.527344 L 37.390625 13.867188 C 37.390625 8.273438 32.855469 3.738281 27.257812 3.738281 " fill-opacity="1" fill-rule="nonzero"/></g><g clip-path="url(#eab4d0d23b)"><path fill="#e6e6e6" d="M 18.320312 32.34375 L 18.320312 39.496094 L 21.894531 39.496094 L 18.320312 49.03125 L 18.320312 41.878906 L 14.742188 41.878906 Z M 4.015625 27.574219 L 4.015625 53.800781 L 7.589844 53.800781 L 7.589844 68.699219 C 7.589844 69.6875 8.390625 70.488281 9.378906 70.488281 C 10.367188 70.488281 11.167969 69.6875 11.167969 68.699219 L 11.167969 53.800781 L 25.472656 53.800781 L 25.472656 68.699219 C 25.472656 69.6875 26.273438 70.488281 27.257812 70.488281 C 28.246094 70.488281 29.046875 69.6875 29.046875 68.699219 L 29.046875 53.800781 L 32.621094 53.800781 L 32.621094 27.574219 L 4.015625 27.574219 " fill-opacity="1" fill-rule="nonzero"/></g></svg>