<svg xmlns="http://www.w3.org/2000/svg" xmlns:xlink="http://www.w3.org/1999/xlink" width="100" zoomAndPan="magnify" viewBox="0 0 75 74.999997" height="100" preserveAspectRatio="xMidYMid meet" version="1.0"><defs><clipPath id="5bb7180ea2"><path d="M 20.328125 2.445312 L 54.828125 2.445312 L 54.828125 70.695312 L 20.328125 70.695312 Z M 20.328125 2.445312 " clip-rule="nonzero"/></clipPath></defs><g clip-path="url(#5bb7180ea2)"><path fill="#ffffff" d="M 30.707031 4.347656 L 30.707031 5.414062 C 30.707031 5.484375 30.707031 5.597656 30.734375 5.671875 L 27.457031 5.671875 C 23.53125 5.671875 20.328125 8.871094 20.328125 12.792969 L 20.328125 63.566406 C 20.328125 67.488281 23.53125 70.6875 27.457031 70.6875 L 47.699219 70.6875 C 51.625 70.6875 54.828125 67.488281 54.828125 63.566406 L 54.828125 12.792969 C 54.828125 8.871094 51.625 5.671875 47.699219 5.671875 L 44.890625 5.671875 C 44.921875 5.597656 44.921875 5.484375 44.921875 5.414062 L 44.921875 4.347656 C 44.921875 3.285156 44.058594 2.453125 43.023438 2.453125 L 32.605469 2.453125 C 31.570312 2.453125 30.707031 3.285156 30.707031 4.347656 Z M 47.699219 8.945312 C 49.828125 8.945312 51.578125 10.683594 51.578125 12.820312 L 51.578125 63.566406 C 51.578125 65.695312 49.835938 67.441406 47.699219 67.441406 L 27.457031 67.441406 C 25.328125 67.441406 23.578125 65.703125 23.578125 63.566406 L 23.578125 12.792969 C 23.578125 10.664062 25.320312 8.917969 27.457031 8.917969 C 27.457031 8.945312 47.699219 8.945312 47.699219 8.945312 Z M 47.699219 8.945312 " fill-opacity="1" fill-rule="nonzero"/></g><path fill="#ffffff" d="M 49.800781 37.679688 L 49.800781 63.722656 C 49.800781 64.335938 49.300781 64.835938 48.6875 64.835938 L 26.457031 64.835938 C 25.847656 64.835938 25.347656 64.335938 25.347656 63.722656 L 25.347656 37.671875 C 25.347656 37.0625 25.847656 36.5625 26.457031 36.5625 L 48.6875 36.5625 C 49.300781 36.570312 49.800781 37.070312 49.800781 37.679688 Z M 49.800781 37.679688 " fill-opacity="1" fill-rule="nonzero"/></svg>