<svg xmlns="http://www.w3.org/2000/svg" xmlns:xlink="http://www.w3.org/1999/xlink" width="100" zoomAndPan="magnify" viewBox="0 0 75 74.999997" height="100" preserveAspectRatio="xMidYMid meet" version="1.0"><defs><clipPath id="3775b72a0b"><path d="M 35 3.492188 L 40 3.492188 L 40 22 L 35 22 Z M 35 3.492188 " clip-rule="nonzero"/></clipPath><clipPath id="a7f0b710f6"><path d="M 3.492188 35 L 22 35 L 22 40 L 3.492188 40 Z M 3.492188 35 " clip-rule="nonzero"/></clipPath><clipPath id="307c19ee78"><path d="M 53 35 L 71.742188 35 L 71.742188 40 L 53 40 Z M 53 35 " clip-rule="nonzero"/></clipPath><clipPath id="c567aa542e"><path d="M 35 53 L 40 53 L 40 71.742188 L 35 71.742188 Z M 35 53 " clip-rule="nonzero"/></clipPath></defs><g clip-path="url(#3775b72a0b)"><path fill="#ffffff" d="M 38.507812 3.492188 L 36.730469 3.492188 C 36.199219 3.492188 35.769531 3.925781 35.769531 4.457031 L 35.769531 21.921875 L 39.46875 21.921875 L 39.46875 4.457031 C 39.46875 3.925781 39.039062 3.492188 38.507812 3.492188 " fill-opacity="1" fill-rule="nonzero"/></g><path fill="#ffffff" d="M 9.398438 28.332031 L 9.398438 30.109375 C 9.398438 30.640625 9.832031 31.070312 10.359375 31.070312 L 21.921875 31.070312 L 21.921875 27.371094 L 10.359375 27.371094 C 9.832031 27.371094 9.398438 27.800781 9.398438 28.332031 " fill-opacity="1" fill-rule="nonzero"/><g clip-path="url(#a7f0b710f6)"><path fill="#ffffff" d="M 3.492188 36.730469 L 3.492188 38.507812 C 3.492188 39.035156 3.925781 39.46875 4.457031 39.46875 L 21.921875 39.46875 L 21.921875 35.769531 L 4.457031 35.769531 C 3.925781 35.769531 3.492188 36.199219 3.492188 36.730469 " fill-opacity="1" fill-rule="nonzero"/></g><path fill="#ffffff" d="M 30.109375 9.398438 L 28.332031 9.398438 C 27.800781 9.398438 27.371094 9.832031 27.371094 10.359375 L 27.371094 21.921875 L 31.070312 21.921875 L 31.070312 10.359375 C 31.070312 9.832031 30.640625 9.398438 30.109375 9.398438 " fill-opacity="1" fill-rule="nonzero"/><path fill="#ffffff" d="M 46.902344 9.398438 L 45.128906 9.398438 C 44.597656 9.398438 44.167969 9.832031 44.167969 10.359375 L 44.167969 21.921875 L 47.867188 21.921875 L 47.867188 10.359375 C 47.867188 9.832031 47.433594 9.398438 46.902344 9.398438 " fill-opacity="1" fill-rule="nonzero"/><g clip-path="url(#307c19ee78)"><path fill="#ffffff" d="M 70.78125 39.46875 C 71.3125 39.46875 71.742188 39.035156 71.742188 38.507812 L 71.742188 36.730469 C 71.742188 36.199219 71.3125 35.769531 70.78125 35.769531 L 53.3125 35.769531 L 53.3125 39.46875 L 70.78125 39.46875 " fill-opacity="1" fill-rule="nonzero"/></g><path fill="#ffffff" d="M 47.40625 44.808594 C 47.40625 46.242188 46.242188 47.40625 44.808594 47.40625 L 30.429688 47.40625 C 28.996094 47.40625 27.828125 46.242188 27.828125 44.808594 L 27.828125 30.429688 C 27.828125 28.996094 28.996094 27.828125 30.429688 27.828125 L 44.808594 27.828125 C 46.242188 27.828125 47.40625 28.996094 47.40625 30.429688 Z M 51.921875 26.671875 L 51.921875 25.511719 C 51.921875 24.300781 50.9375 23.316406 49.726562 23.316406 L 25.511719 23.316406 C 24.300781 23.316406 23.316406 24.300781 23.316406 25.511719 L 23.316406 49.726562 C 23.316406 50.9375 24.300781 51.921875 25.511719 51.921875 L 49.726562 51.921875 C 50.9375 51.921875 51.921875 50.9375 51.921875 49.726562 L 51.921875 26.671875 " fill-opacity="1" fill-rule="nonzero"/><path fill="#ffffff" d="M 65.839844 30.109375 L 65.839844 28.332031 C 65.839844 27.800781 65.40625 27.371094 64.875 27.371094 L 53.3125 27.371094 L 53.3125 31.070312 L 64.875 31.070312 C 65.40625 31.070312 65.839844 30.640625 65.839844 30.109375 " fill-opacity="1" fill-rule="nonzero"/><path fill="#ffffff" d="M 45.128906 65.839844 L 46.902344 65.839844 C 47.433594 65.839844 47.867188 65.40625 47.867188 64.875 L 47.867188 53.3125 L 44.167969 53.3125 L 44.167969 64.875 C 44.167969 65.40625 44.597656 65.839844 45.128906 65.839844 " fill-opacity="1" fill-rule="nonzero"/><path fill="#ffffff" d="M 65.839844 46.90625 L 65.839844 45.128906 C 65.839844 44.597656 65.40625 44.167969 64.875 44.167969 L 53.3125 44.167969 L 53.3125 47.867188 L 64.875 47.867188 C 65.40625 47.867188 65.839844 47.433594 65.839844 46.90625 " fill-opacity="1" fill-rule="nonzero"/><path fill="#ffffff" d="M 28.332031 65.839844 L 30.109375 65.839844 C 30.640625 65.839844 31.070312 65.40625 31.070312 64.875 L 31.070312 53.3125 L 27.371094 53.3125 L 27.371094 64.875 C 27.371094 65.40625 27.800781 65.839844 28.332031 65.839844 " fill-opacity="1" fill-rule="nonzero"/><g clip-path="url(#c567aa542e)"><path fill="#ffffff" d="M 36.730469 71.742188 L 38.507812 71.742188 C 39.039062 71.742188 39.46875 71.3125 39.46875 70.78125 L 39.46875 53.3125 L 35.769531 53.3125 L 35.769531 70.78125 C 35.769531 71.3125 36.199219 71.742188 36.730469 71.742188 " fill-opacity="1" fill-rule="nonzero"/></g><path fill="#ffffff" d="M 9.398438 45.128906 L 9.398438 46.90625 C 9.398438 47.433594 9.832031 47.867188 10.359375 47.867188 L 21.921875 47.867188 L 21.921875 44.167969 L 10.359375 44.167969 C 9.832031 44.167969 9.398438 44.597656 9.398438 45.128906 " fill-opacity="1" fill-rule="nonzero"/></svg>