<svg xmlns="http://www.w3.org/2000/svg" xmlns:xlink="http://www.w3.org/1999/xlink" width="100" zoomAndPan="magnify" viewBox="0 0 75 74.999997" height="100" preserveAspectRatio="xMidYMid meet" version="1.0"><defs><clipPath id="7a1f6845ab"><path d="M 34.160156 63.625 L 40.839844 63.625 L 40.839844 68.761719 L 34.160156 68.761719 Z M 34.160156 63.625 " clip-rule="nonzero"/></clipPath></defs><path fill="#f1f1f1" d="M 49.71875 4.792969 L 25.28125 4.792969 C 23.707031 4.792969 22.277344 5.4375 21.238281 6.472656 C 20.203125 7.511719 19.558594 8.941406 19.558594 10.515625 L 19.558594 59.234375 C 19.558594 60.808594 20.203125 62.238281 21.238281 63.277344 C 22.277344 64.3125 23.707031 64.957031 25.28125 64.957031 L 49.71875 64.957031 C 51.292969 64.957031 52.722656 64.3125 53.761719 63.277344 C 54.796875 62.238281 55.441406 60.808594 55.441406 59.234375 L 55.441406 10.515625 C 55.441406 8.941406 54.796875 7.511719 53.761719 6.472656 C 52.722656 5.4375 51.292969 4.792969 49.71875 4.792969 Z M 35.164062 59.40625 L 39.835938 59.40625 C 40.621094 59.40625 41.261719 60.046875 41.261719 60.832031 C 41.261719 61.617188 40.621094 62.257812 39.835938 62.257812 L 35.164062 62.257812 C 34.378906 62.257812 33.738281 61.617188 33.738281 60.832031 C 33.738281 60.046875 34.378906 59.40625 35.164062 59.40625 Z M 31.761719 7.972656 C 32.28125 7.972656 32.699219 8.390625 32.699219 8.910156 C 32.699219 9.429688 32.28125 9.851562 31.761719 9.851562 C 31.242188 9.851562 30.820312 9.429688 30.820312 8.910156 C 30.820312 8.390625 31.242188 7.972656 31.761719 7.972656 Z M 43.242188 9.851562 C 43.757812 9.851562 44.179688 9.429688 44.179688 8.910156 C 44.179688 8.390625 43.757812 7.972656 43.242188 7.972656 L 34.617188 7.972656 C 34.097656 7.972656 33.675781 8.390625 33.675781 8.910156 C 33.675781 9.429688 34.097656 9.851562 34.617188 9.851562 Z M 22.378906 13.246094 L 52.621094 13.246094 L 52.621094 56.707031 L 22.378906 56.707031 L 22.378906 13.246094 " fill-opacity="1" fill-rule="evenodd"/><g clip-path="url(#7a1f6845ab)"><path fill="#ffffff" d="M 34.160156 63.625 L 40.375 63.625 L 40.375 68.597656 L 34.160156 68.597656 Z M 34.160156 63.625 " fill-opacity="1" fill-rule="nonzero"/></g><path stroke-linecap="butt" transform="matrix(0.000000000000000046, -0.755905, 0.75, 0.000000000000000046, 36.372659, 74.997648)" fill="none" stroke-linejoin="miter" d="M 0.00205624 1.497914 L 11.913475 1.497914 " stroke="#ffffff" stroke-width="3" stroke-opacity="1" stroke-miterlimit="4"/></svg>