<svg xmlns="http://www.w3.org/2000/svg" xmlns:xlink="http://www.w3.org/1999/xlink" width="100" zoomAndPan="magnify" viewBox="0 0 75 74.999997" height="100" preserveAspectRatio="xMidYMid meet" version="1.0"><defs><clipPath id="af2c530323"><path d="M 34 3.027344 L 69.484375 3.027344 L 69.484375 38 L 34 38 Z M 34 3.027344 " clip-rule="nonzero"/></clipPath><clipPath id="32a2959f20"><path d="M 5.734375 25 L 51 25 L 51 70.527344 L 5.734375 70.527344 Z M 5.734375 25 " clip-rule="nonzero"/></clipPath></defs><g clip-path="url(#af2c530323)"><path fill="#f1f1f1" d="M 66.03125 10.148438 L 66.03125 10.078125 C 64.988281 8.695312 63.738281 7.519531 62.273438 6.414062 L 62.273438 6.484375 C 61.09375 7.382812 59.910156 8.351562 58.796875 9.320312 C 58.308594 9.042969 57.890625 8.835938 57.472656 8.628906 C 56.917969 8.351562 56.359375 8.074219 55.734375 7.9375 C 55.527344 7.867188 55.316406 7.796875 55.109375 7.796875 C 54.96875 6.277344 54.828125 4.753906 54.621094 3.234375 C 53.925781 3.09375 53.230469 3.09375 52.464844 3.027344 L 51.351562 3.027344 C 50.65625 3.09375 50.027344 3.09375 49.402344 3.234375 C 49.195312 4.6875 49.054688 6.207031 48.984375 7.730469 C 48.707031 7.730469 48.496094 7.796875 48.21875 7.867188 C 48.148438 7.867188 48.082031 7.867188 48.011719 7.9375 C 47.453125 8.074219 46.898438 8.351562 46.339844 8.628906 C 45.855469 8.835938 45.4375 9.042969 45.019531 9.320312 C 43.835938 8.351562 42.722656 7.453125 41.539062 6.484375 L 41.46875 6.414062 C 41.191406 6.621094 40.914062 6.828125 40.703125 7.035156 C 40.21875 7.382812 39.800781 7.796875 39.453125 8.210938 C 38.824219 8.765625 38.339844 9.457031 37.78125 10.148438 L 37.851562 10.148438 C 38.757812 11.324219 39.730469 12.429688 40.703125 13.605469 C 40.425781 14.023438 40.148438 14.507812 39.9375 14.921875 C 39.660156 15.472656 39.453125 16.097656 39.3125 16.648438 C 39.171875 16.925781 39.105469 17.203125 39.105469 17.410156 C 37.574219 17.550781 36.042969 17.6875 34.582031 17.894531 C 34.441406 18.585938 34.371094 19.277344 34.371094 20.039062 C 34.371094 21.078125 34.441406 22.113281 34.652344 23.082031 C 36.113281 23.21875 37.574219 23.359375 39.105469 23.496094 C 39.105469 23.773438 39.171875 24.050781 39.3125 24.257812 C 39.453125 24.878906 39.660156 25.433594 39.9375 26.054688 C 40.21875 26.539062 40.425781 27.023438 40.773438 27.4375 C 39.800781 28.613281 38.824219 29.722656 37.921875 30.898438 C 38.964844 32.347656 40.21875 33.59375 41.679688 34.632812 L 41.679688 34.5625 C 42.792969 33.664062 43.976562 32.695312 45.089844 31.726562 L 45.15625 31.726562 C 45.503906 31.933594 45.921875 32.140625 46.269531 32.347656 C 46.898438 32.625 47.59375 32.902344 48.21875 33.042969 C 48.496094 33.109375 48.707031 33.179688 48.914062 33.25 C 49.054688 34.699219 49.195312 36.222656 49.402344 37.742188 C 50.027344 37.8125 50.65625 37.882812 51.351562 37.882812 L 52.394531 37.882812 C 53.160156 37.882812 53.925781 37.8125 54.691406 37.675781 C 54.828125 36.222656 54.96875 34.699219 55.109375 33.179688 C 55.316406 33.109375 55.527344 33.042969 55.734375 32.972656 C 56.359375 32.832031 56.917969 32.625 57.472656 32.347656 C 57.960938 32.140625 58.449219 31.867188 58.933594 31.519531 C 58.933594 31.589844 58.933594 31.589844 59.003906 31.589844 C 60.117188 32.558594 61.300781 33.523438 62.484375 34.425781 C 62.691406 34.285156 62.902344 34.148438 63.179688 33.941406 C 63.597656 33.59375 64.015625 33.179688 64.363281 32.765625 C 64.988281 32.140625 65.613281 31.449219 66.171875 30.691406 C 65.199219 29.515625 64.222656 28.339844 63.25 27.230469 L 63.25 27.164062 C 63.457031 26.816406 63.667969 26.402344 63.875 25.988281 C 64.085938 25.433594 64.363281 24.878906 64.5 24.328125 C 64.5 24.257812 64.5 24.1875 64.570312 24.1875 C 64.570312 23.910156 64.640625 23.703125 64.710938 23.566406 C 66.242188 23.429688 67.773438 23.289062 69.234375 23.152344 C 69.371094 22.460938 69.371094 21.769531 69.441406 21.078125 L 69.441406 19.902344 C 69.371094 19.210938 69.371094 18.515625 69.234375 17.824219 C 67.773438 17.6875 66.242188 17.550781 64.710938 17.410156 C 64.640625 17.203125 64.570312 16.996094 64.570312 16.789062 C 64.363281 16.167969 64.152344 15.542969 63.875 14.921875 C 63.667969 14.507812 63.386719 14.023438 63.179688 13.605469 C 64.085938 12.5 65.058594 11.324219 66.03125 10.148438 Z M 47.453125 15.890625 C 48.707031 14.574219 50.238281 13.953125 51.976562 14.023438 C 53.785156 13.953125 55.246094 14.574219 56.570312 15.890625 C 57.820312 17.132812 58.449219 18.65625 58.449219 20.386719 C 58.449219 22.183594 57.820312 23.636719 56.570312 24.949219 C 55.246094 26.195312 53.785156 26.816406 51.976562 26.816406 C 50.238281 26.816406 48.707031 26.195312 47.453125 24.949219 C 46.203125 23.636719 45.574219 22.183594 45.574219 20.386719 C 45.574219 18.65625 46.203125 17.132812 47.453125 15.890625 Z M 47.453125 15.890625 " fill-opacity="1" fill-rule="nonzero"/></g><path fill="#f1f1f1" d="M 52.046875 14.921875 C 50.515625 14.921875 49.261719 15.472656 48.148438 16.511719 C 47.105469 17.617188 46.550781 18.863281 46.550781 20.386719 C 46.550781 21.90625 47.105469 23.152344 48.148438 24.257812 C 49.261719 25.363281 50.515625 25.917969 52.046875 25.917969 C 53.578125 25.917969 54.828125 25.363281 55.941406 24.257812 C 57.054688 23.152344 57.542969 21.90625 57.542969 20.386719 C 57.542969 18.863281 57.054688 17.617188 55.941406 16.511719 C 54.828125 15.472656 53.578125 14.921875 52.046875 14.921875 Z M 49.125 17.480469 C 49.957031 16.71875 50.933594 16.304688 52.046875 16.304688 C 53.160156 16.304688 54.132812 16.71875 54.96875 17.480469 C 55.804688 18.308594 56.152344 19.210938 56.152344 20.386719 C 56.152344 21.5625 55.804688 22.527344 54.96875 23.289062 C 54.132812 24.121094 53.160156 24.535156 52.046875 24.535156 C 50.933594 24.535156 49.957031 24.121094 49.125 23.289062 C 48.359375 22.527344 47.941406 21.5625 47.941406 20.386719 C 47.941406 19.277344 48.359375 18.308594 49.125 17.480469 Z M 49.125 17.480469 " fill-opacity="1" fill-rule="nonzero"/><g clip-path="url(#32a2959f20)"><path fill="#f1f1f1" d="M 34.164062 26.261719 C 33.886719 26.125 33.675781 26.054688 33.46875 26.054688 C 32.632812 25.847656 31.796875 25.710938 30.960938 25.570312 C 30.199219 27.4375 29.570312 29.238281 28.945312 31.035156 L 27.691406 31.035156 C 26.855469 31.105469 26.09375 31.171875 25.328125 31.3125 C 24.699219 31.382812 24.074219 31.589844 23.449219 31.796875 C 22.335938 30.207031 21.152344 28.613281 20.039062 27.09375 L 19.96875 27.023438 C 19.550781 27.164062 19.132812 27.300781 18.785156 27.507812 C 18.089844 27.785156 17.464844 28.128906 16.835938 28.546875 C 15.863281 29.03125 14.957031 29.652344 14.125 30.414062 L 14.125 30.480469 C 14.957031 32.210938 15.722656 33.941406 16.558594 35.667969 C 16.070312 36.152344 15.65625 36.566406 15.238281 37.121094 C 14.679688 37.675781 14.191406 38.367188 13.777344 39.058594 C 13.566406 39.335938 13.429688 39.609375 13.289062 39.957031 C 11.339844 39.609375 9.390625 39.265625 7.445312 38.988281 C 7.097656 39.820312 6.746094 40.648438 6.46875 41.546875 C 6.191406 42.929688 5.914062 44.246094 5.773438 45.558594 L 11.203125 47.632812 L 11.203125 48.601562 C 11.203125 49.363281 11.269531 50.191406 11.480469 51.023438 C 11.550781 51.714844 11.757812 52.40625 11.964844 53.097656 C 10.367188 54.203125 8.835938 55.3125 7.234375 56.484375 C 8.070312 58.5625 9.253906 60.496094 10.644531 62.296875 L 10.714844 62.296875 C 12.453125 61.464844 14.191406 60.703125 16.003906 59.875 C 16.421875 60.289062 16.835938 60.636719 17.253906 61.050781 C 17.882812 61.605469 18.648438 62.089844 19.480469 62.574219 C 19.691406 62.710938 19.96875 62.847656 20.246094 63.054688 C 19.898438 64.921875 19.621094 66.859375 19.34375 68.796875 C 20.109375 69.140625 20.875 69.417969 21.707031 69.625 C 21.917969 69.695312 22.335938 69.835938 23.03125 69.972656 C 24.003906 70.25 24.980469 70.386719 25.882812 70.527344 C 26.648438 68.660156 27.34375 66.859375 27.972656 64.992188 L 28.875 64.992188 C 29.710938 64.992188 30.476562 64.921875 31.242188 64.785156 C 31.9375 64.648438 32.632812 64.441406 33.328125 64.230469 C 33.328125 64.230469 33.328125 64.300781 33.398438 64.300781 C 34.511719 65.890625 35.695312 67.484375 36.808594 69.074219 C 37.15625 68.867188 37.503906 68.726562 37.78125 68.589844 C 38.476562 68.3125 39.105469 67.96875 39.730469 67.621094 C 40.773438 67 41.75 66.308594 42.652344 65.546875 C 41.886719 63.75 41.050781 62.019531 40.21875 60.222656 C 40.636719 59.804688 40.984375 59.390625 41.398438 58.976562 C 41.886719 58.355469 42.375 57.660156 42.792969 57.039062 C 42.792969 56.96875 42.863281 56.902344 42.863281 56.832031 C 43 56.625 43.140625 56.347656 43.277344 56.140625 C 45.226562 56.484375 47.175781 56.761719 49.125 57.109375 C 49.472656 56.277344 49.75 55.449219 50.027344 54.550781 C 50.097656 54.34375 50.167969 54.136719 50.238281 53.859375 C 50.308594 53.652344 50.308594 53.441406 50.445312 53.167969 C 50.585938 52.265625 50.792969 51.367188 50.863281 50.539062 C 49.054688 49.777344 47.175781 49.15625 45.367188 48.464844 L 45.367188 47.632812 C 45.367188 46.804688 45.296875 45.90625 45.089844 45.074219 C 45.019531 44.453125 44.808594 43.828125 44.671875 43.207031 C 46.269531 42.101562 47.871094 40.925781 49.402344 39.75 L 49.472656 39.75 C 48.636719 37.675781 47.523438 35.738281 45.992188 33.941406 C 44.183594 34.699219 42.445312 35.53125 40.703125 36.359375 C 40.21875 35.875 39.730469 35.390625 39.242188 34.976562 C 38.617188 34.492188 37.992188 34.007812 37.292969 33.664062 C 37.085938 33.457031 36.808594 33.316406 36.597656 33.179688 C 36.878906 31.242188 37.226562 29.304688 37.503906 27.371094 C 36.667969 27.023438 35.765625 26.679688 34.859375 26.402344 C 34.652344 26.332031 34.371094 26.261719 34.164062 26.261719 Z M 21.222656 52.128906 C 20.039062 50.125 19.761719 48.046875 20.386719 45.835938 C 20.941406 43.621094 22.265625 41.960938 24.28125 40.785156 C 26.230469 39.679688 28.386719 39.402344 30.546875 39.957031 C 32.773438 40.578125 34.511719 41.824219 35.625 43.828125 C 36.808594 45.835938 37.085938 47.910156 36.460938 50.125 C 35.902344 52.335938 34.582031 53.996094 32.632812 55.101562 C 30.546875 56.277344 28.457031 56.554688 26.300781 55.933594 C 24.074219 55.378906 22.335938 54.066406 21.222656 52.128906 Z M 21.222656 52.128906 " fill-opacity="1" fill-rule="nonzero"/></g><path fill="#f1f1f1" d="M 21.636719 46.179688 C 21.082031 48.046875 21.289062 49.847656 22.265625 51.507812 L 22.335938 51.507812 C 23.308594 53.234375 24.769531 54.273438 26.648438 54.828125 C 28.527344 55.3125 30.335938 55.101562 32.074219 54.136719 C 33.816406 53.097656 34.859375 51.714844 35.417969 49.847656 L 35.417969 49.777344 C 35.902344 47.910156 35.625 46.113281 34.652344 44.453125 C 33.675781 42.722656 32.214844 41.617188 30.335938 41.132812 C 28.457031 40.578125 26.578125 40.855469 24.910156 41.824219 C 23.167969 42.792969 22.125 44.246094 21.636719 46.179688 Z M 25.8125 43.414062 C 27.136719 42.65625 28.457031 42.445312 29.847656 42.863281 C 31.242188 43.207031 32.355469 44.039062 33.121094 45.351562 C 33.886719 46.597656 34.023438 47.980469 33.675781 49.363281 C 33.257812 50.746094 32.425781 51.851562 31.171875 52.542969 L 31.171875 52.613281 C 29.847656 53.304688 28.527344 53.511719 27.136719 53.097656 C 25.675781 52.75 24.628906 51.921875 23.867188 50.609375 C 23.167969 49.363281 22.960938 48.046875 23.308594 46.597656 C 23.726562 45.214844 24.5625 44.175781 25.8125 43.414062 Z M 25.8125 43.414062 " fill-opacity="1" fill-rule="nonzero"/></svg>