<svg xmlns="http://www.w3.org/2000/svg" xmlns:xlink="http://www.w3.org/1999/xlink" width="100" zoomAndPan="magnify" viewBox="0 0 75 74.999997" height="100" preserveAspectRatio="xMidYMid meet" version="1.0"><defs><clipPath id="b2fdb6b4af"><path d="M 19 22 L 56 22 L 56 56.671875 L 19 56.671875 Z M 19 22 " clip-rule="nonzero"/></clipPath><clipPath id="d34d03d8c3"><path d="M 0.457031 18.421875 L 31 18.421875 L 31 47 L 0.457031 47 Z M 0.457031 18.421875 " clip-rule="nonzero"/></clipPath><clipPath id="bfc57dc188"><path d="M 44 18.421875 L 74.707031 18.421875 L 74.707031 47 L 44 47 Z M 44 18.421875 " clip-rule="nonzero"/></clipPath></defs><g clip-path="url(#b2fdb6b4af)"><path fill="#ffffff" d="M 55.304688 35.761719 L 43.058594 33.980469 L 37.582031 22.878906 L 32.105469 33.980469 L 19.859375 35.761719 L 28.71875 44.40625 L 26.628906 56.605469 L 37.582031 50.84375 L 48.535156 56.605469 L 46.445312 44.40625 Z M 55.304688 35.761719 " fill-opacity="1" fill-rule="nonzero"/></g><g clip-path="url(#d34d03d8c3)"><path fill="#ffffff" d="M 15.484375 34.335938 L 26.667969 32.710938 L 30.195312 29.273438 L 19.921875 27.78125 L 15.328125 18.464844 L 10.730469 27.78125 L 0.457031 29.273438 L 7.890625 36.523438 L 6.136719 46.761719 L 15.328125 41.925781 L 24.515625 46.761719 L 23.773438 42.421875 Z M 15.484375 34.335938 " fill-opacity="1" fill-rule="nonzero"/></g><g clip-path="url(#bfc57dc188)"><path fill="#ffffff" d="M 74.707031 29.273438 L 64.433594 27.78125 L 59.835938 18.464844 L 55.242188 27.78125 L 44.96875 29.273438 L 48.496094 32.710938 L 59.683594 34.335938 L 51.394531 42.421875 L 50.652344 46.761719 L 59.835938 41.925781 L 69.03125 46.761719 L 67.273438 36.523438 Z M 74.707031 29.273438 " fill-opacity="1" fill-rule="nonzero"/></g></svg>