<svg xmlns="http://www.w3.org/2000/svg" xmlns:xlink="http://www.w3.org/1999/xlink" width="100" zoomAndPan="magnify" viewBox="0 0 75 74.999997" height="100" preserveAspectRatio="xMidYMid meet" version="1.0"><defs><clipPath id="b820cca4b2"><path d="M 18.316406 18.421875 L 50 18.421875 L 50 51 L 18.316406 51 Z M 18.316406 18.421875 " clip-rule="nonzero"/></clipPath><clipPath id="fbda784533"><path d="M 38 38 L 56.566406 38 L 56.566406 56.671875 L 38 56.671875 Z M 38 38 " clip-rule="nonzero"/></clipPath></defs><path fill="#ffffff" d="M 27.582031 34.261719 C 27.582031 37.886719 30.53125 40.835938 34.15625 40.835938 C 37.78125 40.835938 40.730469 37.886719 40.730469 34.261719 C 40.730469 30.636719 37.78125 27.6875 34.15625 27.6875 C 30.53125 27.6875 27.582031 30.636719 27.582031 34.261719 Z M 27.582031 34.261719 " fill-opacity="1" fill-rule="nonzero"/><g clip-path="url(#b820cca4b2)"><path fill="#ffffff" d="M 31.515625 19.988281 L 31.515625 22.230469 C 30.070312 22.546875 28.722656 23.113281 27.515625 23.886719 L 25.929688 22.300781 C 25.316406 21.691406 24.265625 21.753906 23.578125 22.441406 L 22.335938 23.683594 C 21.964844 24.054688 21.777344 24.53125 21.777344 24.988281 C 21.777344 25.378906 21.914062 25.753906 22.195312 26.035156 L 23.785156 27.621094 C 23.007812 28.828125 22.4375 30.175781 22.125 31.621094 L 19.882812 31.621094 C 19.019531 31.621094 18.316406 32.410156 18.316406 33.382812 L 18.316406 35.140625 C 18.316406 36.113281 19.019531 36.902344 19.882812 36.902344 L 22.125 36.902344 C 22.4375 38.347656 23.007812 39.695312 23.785156 40.902344 L 22.289062 42.394531 C 22.730469 42.269531 23.207031 42.363281 23.539062 42.691406 L 23.902344 43.054688 C 24.234375 42.878906 24.582031 42.734375 24.941406 42.625 L 24.941406 42.113281 C 24.941406 41.40625 25.550781 40.835938 26.304688 40.835938 L 27.066406 40.835938 C 27.816406 40.835938 28.429688 41.40625 28.429688 42.113281 L 28.429688 42.625 C 28.789062 42.734375 29.136719 42.878906 29.46875 43.054688 L 29.832031 42.691406 C 30.078125 42.445312 30.429688 42.316406 30.789062 42.335938 C 31.128906 42.359375 31.449219 42.503906 31.699219 42.753906 L 32.238281 43.292969 C 32.503906 43.558594 32.65625 43.917969 32.65625 44.28125 C 32.65625 44.617188 32.527344 44.929688 32.296875 45.160156 L 31.933594 45.519531 C 32.113281 45.855469 32.257812 46.203125 32.367188 46.5625 L 32.878906 46.5625 C 33.582031 46.5625 34.15625 47.171875 34.15625 47.925781 L 34.15625 48.6875 C 34.15625 49.4375 33.582031 50.050781 32.878906 50.050781 L 32.84375 50.050781 C 32.984375 50.082031 33.128906 50.097656 33.277344 50.097656 L 35.035156 50.097656 C 36.007812 50.097656 36.796875 49.398438 36.796875 48.535156 L 36.796875 46.292969 C 38.183594 45.988281 39.480469 45.449219 40.648438 44.722656 C 40.746094 44.492188 40.855469 44.265625 40.980469 44.042969 L 40.410156 43.476562 C 40.144531 43.207031 39.996094 42.847656 39.996094 42.457031 C 39.996094 42.035156 40.175781 41.613281 40.488281 41.300781 L 41.191406 40.59375 C 41.816406 39.972656 42.789062 39.9375 43.367188 40.515625 L 43.9375 41.085938 C 44.160156 40.960938 44.386719 40.851562 44.617188 40.753906 C 45.34375 39.585938 45.882812 38.289062 46.1875 36.902344 L 48.429688 36.902344 C 49.292969 36.902344 49.992188 36.113281 49.992188 35.140625 L 49.992188 33.382812 C 49.992188 32.410156 49.292969 31.621094 48.429688 31.621094 L 46.1875 31.621094 C 45.871094 30.175781 45.300781 28.828125 44.527344 27.621094 L 46.117188 26.035156 C 46.398438 25.753906 46.535156 25.378906 46.535156 24.988281 C 46.535156 24.53125 46.347656 24.054688 45.976562 23.683594 L 44.730469 22.441406 C 44.042969 21.753906 42.992188 21.691406 42.382812 22.300781 L 40.796875 23.886719 C 39.589844 23.113281 38.242188 22.546875 36.796875 22.230469 L 36.796875 19.988281 C 36.796875 19.125 36.007812 18.421875 35.035156 18.421875 L 33.277344 18.421875 C 32.304688 18.421875 31.515625 19.125 31.515625 19.988281 Z M 41.328125 34.261719 C 41.328125 38.222656 38.117188 41.433594 34.15625 41.433594 C 30.195312 41.433594 26.984375 38.222656 26.984375 34.261719 C 26.984375 30.300781 30.195312 27.089844 34.15625 27.089844 C 38.117188 27.089844 41.328125 30.300781 41.328125 34.261719 Z M 41.328125 34.261719 " fill-opacity="1" fill-rule="nonzero"/></g><path fill="#ffffff" d="M 51.1875 47.707031 C 51.1875 45.730469 49.582031 44.121094 47.601562 44.121094 C 45.625 44.121094 44.015625 45.730469 44.015625 47.707031 C 44.015625 49.683594 45.625 51.292969 47.601562 51.292969 C 49.582031 51.292969 51.1875 49.683594 51.1875 47.707031 Z M 51.1875 47.707031 " fill-opacity="1" fill-rule="nonzero"/><g clip-path="url(#fbda784533)"><path fill="#ffffff" d="M 47.105469 56.671875 L 48.101562 56.671875 C 48.652344 56.671875 49.097656 56.277344 49.097656 55.789062 L 49.097656 54.519531 C 49.914062 54.339844 50.679688 54.015625 51.363281 53.578125 L 52.257812 54.476562 C 52.605469 54.824219 53.199219 54.789062 53.589844 54.398438 L 54.292969 53.695312 C 54.503906 53.484375 54.609375 53.214844 54.609375 52.957031 C 54.609375 52.738281 54.53125 52.523438 54.371094 52.363281 L 53.472656 51.46875 C 53.910156 50.785156 54.234375 50.019531 54.414062 49.203125 L 55.683594 49.203125 C 56.171875 49.203125 56.566406 48.757812 56.566406 48.207031 L 56.566406 47.210938 C 56.566406 46.660156 56.171875 46.214844 55.683594 46.214844 L 54.414062 46.214844 C 54.234375 45.394531 53.910156 44.632812 53.472656 43.949219 L 54.371094 43.050781 C 54.53125 42.890625 54.609375 42.679688 54.609375 42.457031 C 54.609375 42.199219 54.503906 41.929688 54.292969 41.722656 L 53.589844 41.015625 C 53.199219 40.628906 52.605469 40.59375 52.257812 40.9375 L 51.363281 41.835938 C 50.679688 41.398438 49.914062 41.078125 49.097656 40.898438 L 49.097656 39.628906 C 49.097656 39.140625 48.652344 38.742188 48.101562 38.742188 L 47.105469 38.742188 C 46.554688 38.742188 46.109375 39.140625 46.109375 39.628906 L 46.109375 40.898438 C 45.289062 41.078125 44.527344 41.398438 43.84375 41.835938 L 42.945312 40.9375 C 42.601562 40.59375 42.003906 40.628906 41.617188 41.015625 L 40.910156 41.722656 C 40.703125 41.929688 40.59375 42.199219 40.59375 42.457031 C 40.59375 42.679688 40.671875 42.890625 40.832031 43.050781 L 41.730469 43.949219 C 41.292969 44.632812 40.972656 45.394531 40.792969 46.214844 L 39.523438 46.214844 C 39.035156 46.214844 38.636719 46.660156 38.636719 47.210938 L 38.636719 48.207031 C 38.636719 48.757812 39.035156 49.203125 39.523438 49.203125 L 40.792969 49.203125 C 40.972656 50.019531 41.292969 50.785156 41.730469 51.46875 L 40.832031 52.363281 C 40.671875 52.523438 40.59375 52.738281 40.59375 52.957031 C 40.59375 53.214844 40.703125 53.484375 40.910156 53.695312 L 41.617188 54.398438 C 42.003906 54.789062 42.601562 54.824219 42.945312 54.476562 L 43.84375 53.578125 C 44.527344 54.015625 45.289062 54.339844 46.109375 54.519531 L 46.109375 55.789062 C 46.109375 56.277344 46.554688 56.671875 47.105469 56.671875 Z M 43.417969 47.707031 C 43.417969 45.398438 45.292969 43.523438 47.601562 43.523438 C 49.914062 43.523438 51.785156 45.398438 51.785156 47.707031 C 51.785156 50.019531 49.914062 51.890625 47.601562 51.890625 C 45.292969 51.890625 43.417969 50.019531 43.417969 47.707031 Z M 43.417969 47.707031 " fill-opacity="1" fill-rule="nonzero"/></g><path fill="#ffffff" d="M 26.683594 50.996094 C 26.328125 50.996094 25.984375 50.925781 25.65625 50.789062 C 25.328125 50.652344 25.035156 50.460938 24.78125 50.207031 C 24.53125 49.957031 24.335938 49.664062 24.199219 49.335938 C 24.0625 49.003906 23.996094 48.664062 23.996094 48.304688 C 23.996094 47.949219 24.0625 47.605469 24.199219 47.277344 C 24.335938 46.945312 24.53125 46.65625 24.78125 46.402344 C 25.035156 46.152344 25.328125 45.957031 25.65625 45.820312 C 25.984375 45.683594 26.328125 45.617188 26.683594 45.617188 C 27.042969 45.617188 27.382812 45.683594 27.714844 45.820312 C 28.042969 45.957031 28.335938 46.152344 28.585938 46.402344 C 28.839844 46.65625 29.03125 46.945312 29.167969 47.277344 C 29.304688 47.605469 29.375 47.949219 29.375 48.304688 C 29.375 48.664062 29.304688 49.003906 29.167969 49.335938 C 29.03125 49.664062 28.839844 49.957031 28.585938 50.207031 C 28.335938 50.460938 28.042969 50.652344 27.714844 50.789062 C 27.382812 50.925781 27.042969 50.996094 26.683594 50.996094 Z M 26.683594 50.996094 " fill-opacity="1" fill-rule="nonzero"/><path fill="#ffffff" d="M 25.539062 54.5 C 25.539062 54.875 25.882812 55.179688 26.304688 55.179688 L 27.066406 55.179688 C 27.488281 55.179688 27.832031 54.875 27.832031 54.5 L 27.832031 53.527344 C 28.457031 53.390625 29.042969 53.144531 29.566406 52.808594 L 30.253906 53.496094 C 30.519531 53.761719 30.976562 53.734375 31.273438 53.4375 L 31.816406 52.898438 C 31.976562 52.734375 32.058594 52.527344 32.058594 52.332031 C 32.058594 52.160156 31.996094 52 31.875 51.875 L 31.1875 51.1875 C 31.523438 50.664062 31.769531 50.078125 31.90625 49.453125 L 32.878906 49.453125 C 33.253906 49.453125 33.558594 49.109375 33.558594 48.6875 L 33.558594 47.925781 C 33.558594 47.503906 33.253906 47.160156 32.878906 47.160156 L 31.90625 47.160156 C 31.769531 46.53125 31.523438 45.949219 31.1875 45.425781 L 31.875 44.738281 C 31.996094 44.613281 32.058594 44.449219 32.058594 44.28125 C 32.058594 44.082031 31.976562 43.875 31.816406 43.714844 L 31.273438 43.175781 C 30.976562 42.878906 30.519531 42.851562 30.253906 43.117188 L 29.566406 43.804688 C 29.042969 43.46875 28.457031 43.222656 27.832031 43.085938 L 27.832031 42.113281 C 27.832031 41.738281 27.488281 41.433594 27.066406 41.433594 L 26.304688 41.433594 C 25.882812 41.433594 25.539062 41.738281 25.539062 42.113281 L 25.539062 43.085938 C 24.910156 43.222656 24.328125 43.46875 23.804688 43.804688 L 23.113281 43.117188 C 22.851562 42.851562 22.394531 42.878906 22.09375 43.175781 L 21.554688 43.714844 C 21.394531 43.875 21.3125 44.082031 21.3125 44.28125 C 21.3125 44.449219 21.371094 44.613281 21.496094 44.738281 L 22.183594 45.425781 C 21.847656 45.949219 21.601562 46.53125 21.464844 47.160156 L 20.492188 47.160156 C 20.117188 47.160156 19.8125 47.503906 19.8125 47.925781 L 19.8125 48.6875 C 19.8125 49.109375 20.117188 49.453125 20.492188 49.453125 L 21.464844 49.453125 C 21.601562 50.078125 21.847656 50.664062 22.183594 51.1875 L 21.496094 51.875 C 21.371094 52 21.3125 52.160156 21.3125 52.332031 C 21.3125 52.527344 21.394531 52.734375 21.554688 52.898438 L 22.09375 53.4375 C 22.394531 53.734375 22.851562 53.761719 23.113281 53.496094 L 23.804688 52.808594 C 24.328125 53.144531 24.910156 53.390625 25.539062 53.527344 Z M 23.695312 48.304688 C 23.695312 46.65625 25.035156 45.316406 26.683594 45.316406 C 28.335938 45.316406 29.671875 46.65625 29.671875 48.304688 C 29.671875 49.957031 28.335938 51.292969 26.683594 51.292969 C 25.035156 51.292969 23.695312 49.957031 23.695312 48.304688 Z M 23.695312 48.304688 " fill-opacity="1" fill-rule="nonzero"/></svg>