<svg xmlns="http://www.w3.org/2000/svg" xmlns:xlink="http://www.w3.org/1999/xlink" width="100" zoomAndPan="magnify" viewBox="0 0 75 74.999997" height="100" preserveAspectRatio="xMidYMid meet" version="1.0"><defs><clipPath id="3d73d35b75"><path d="M 17.125 30 L 44 30 L 44 56.671875 L 17.125 56.671875 Z M 17.125 30 " clip-rule="nonzero"/></clipPath><clipPath id="5d10966fed"><path d="M 31 19 L 57.625 19 L 57.625 46 L 31 46 Z M 31 19 " clip-rule="nonzero"/></clipPath></defs><g clip-path="url(#3d73d35b75)"><path fill="#ffffff" d="M 35.371094 47.257812 C 35.261719 47.621094 35.078125 47.960938 34.820312 48.269531 C 34.5625 48.578125 34.226562 48.84375 33.8125 49.070312 C 33.402344 49.289062 32.894531 49.453125 32.292969 49.550781 L 32.292969 51.820312 L 29.96875 51.820312 L 29.96875 49.605469 C 29.074219 49.535156 28.34375 49.394531 27.785156 49.1875 C 27.226562 48.984375 26.8125 48.8125 26.542969 48.679688 L 27.335938 46.539062 C 27.765625 46.75 28.277344 46.941406 28.875 47.113281 C 29.46875 47.289062 30.097656 47.375 30.765625 47.375 C 31.511719 47.375 32.027344 47.273438 32.300781 47.070312 C 32.578125 46.863281 32.71875 46.578125 32.71875 46.203125 C 32.71875 45.96875 32.664062 45.765625 32.550781 45.601562 C 32.441406 45.429688 32.28125 45.28125 32.074219 45.144531 C 31.863281 45.007812 31.597656 44.871094 31.28125 44.746094 C 30.960938 44.613281 30.589844 44.472656 30.171875 44.324219 C 29.765625 44.175781 29.371094 44.011719 28.984375 43.832031 C 28.597656 43.652344 28.25 43.429688 27.933594 43.171875 C 27.621094 42.910156 27.367188 42.589844 27.179688 42.214844 C 26.988281 41.835938 26.894531 41.378906 26.894531 40.847656 C 26.894531 40.441406 26.949219 40.042969 27.066406 39.667969 C 27.183594 39.289062 27.367188 38.945312 27.613281 38.632812 C 27.855469 38.324219 28.175781 38.0625 28.570312 37.84375 C 28.964844 37.628906 29.429688 37.46875 29.96875 37.371094 L 29.96875 35.359375 L 32.292969 35.359375 L 32.292969 37.292969 C 32.933594 37.359375 33.480469 37.453125 33.945312 37.574219 C 34.40625 37.699219 34.769531 37.820312 35.039062 37.945312 L 34.46875 40.179688 C 34.0625 40.003906 33.59375 39.859375 33.058594 39.730469 C 32.523438 39.609375 31.964844 39.546875 31.371094 39.546875 C 30.78125 39.546875 30.355469 39.644531 30.097656 39.84375 C 29.839844 40.039062 29.710938 40.304688 29.710938 40.625 C 29.710938 40.824219 29.753906 40.992188 29.832031 41.136719 C 29.910156 41.277344 30.039062 41.40625 30.210938 41.519531 C 30.382812 41.632812 30.59375 41.738281 30.847656 41.84375 C 31.097656 41.949219 31.402344 42.0625 31.757812 42.1875 C 32.300781 42.386719 32.800781 42.605469 33.261719 42.839844 C 33.722656 43.078125 34.121094 43.34375 34.460938 43.652344 C 34.796875 43.953125 35.0625 44.308594 35.253906 44.71875 C 35.445312 45.128906 35.535156 45.605469 35.535156 46.152344 C 35.535156 46.523438 35.480469 46.890625 35.371094 47.257812 Z M 43.792969 41.761719 C 42.789062 34.636719 36.253906 29.675781 29.183594 30.6875 C 22.125 31.699219 17.210938 38.296875 18.210938 45.421875 C 18.300781 46.050781 18.429688 46.660156 18.601562 47.253906 C 18.984375 48.394531 19.53125 49.480469 20.21875 50.488281 C 20.226562 50.589844 20.234375 50.695312 20.234375 50.796875 C 20.285156 52.730469 19.386719 54.597656 17.839844 55.75 C 17.738281 55.828125 17.695312 55.957031 17.726562 56.078125 C 17.753906 56.199219 17.855469 56.292969 17.976562 56.3125 C 20.222656 56.648438 22.566406 56.105469 24.445312 54.820312 C 24.503906 54.78125 24.5625 54.742188 24.617188 54.703125 L 24.664062 54.667969 C 26.085938 55.523438 27.683594 56.164062 29.40625 56.527344 C 30.511719 56.664062 31.660156 56.660156 32.816406 56.496094 C 39.882812 55.484375 44.792969 48.886719 43.792969 41.761719 " fill-opacity="1" fill-rule="nonzero"/></g><g clip-path="url(#5d10966fed)"><path fill="#ffffff" d="M 57.023438 44.734375 C 56.992188 44.859375 56.894531 44.953125 56.769531 44.96875 C 54.527344 45.308594 52.183594 44.765625 50.304688 43.480469 C 50.246094 43.441406 50.1875 43.398438 50.128906 43.359375 L 50.082031 43.328125 C 48.707031 44.160156 47.160156 44.785156 45.492188 45.152344 C 45.617188 43.960938 45.597656 42.746094 45.425781 41.527344 C 44.878906 37.640625 42.867188 34.199219 39.753906 31.839844 C 37.265625 29.957031 34.316406 28.941406 31.261719 28.894531 C 32.917969 22.601562 39.011719 18.410156 45.5625 19.347656 C 52.625 20.355469 57.539062 26.957031 56.539062 34.082031 C 56.449219 34.707031 56.320312 35.320312 56.144531 35.910156 C 55.761719 37.054688 55.214844 38.140625 54.53125 39.148438 C 54.523438 39.25 54.515625 39.355469 54.515625 39.457031 C 54.464844 41.386719 55.363281 43.257812 56.910156 44.410156 C 57.007812 44.488281 57.054688 44.613281 57.023438 44.734375 " fill-opacity="1" fill-rule="nonzero"/></g></svg>